<svg width="640" height="300" xmlns="http://www.w3.org/2000/svg" version="1.1">

 <g>
  <title>Layer 1</title>
  <text id="svg_80" dominant-baseline="bottom" text-anchor="start" font-style="normal" font-family="Arial, Verdana, sans-serif" font-weight="normal" font-size="10pt" y="27.49991" x="513.5" fill="#FFFFFF" tag="key">Game Rewards</text>
  <text id="svg_77" dominant-baseline="bottom" text-anchor="start" font-style="normal" font-family="Arial, Verdana, sans-serif" font-weight="normal" font-size="10pt" y="27.49991" x="387.5" fill="#FFFFFF" tag="key">Staking Rewards</text>
  <text id="svg_74" dominant-baseline="bottom" text-anchor="start" font-style="normal" font-family="Arial, Verdana, sans-serif" font-weight="normal" font-size="10pt" y="27.49991" x="309.5" fill="#FFFFFF" tag="key">Treasury</text>
  <text id="svg_71" dominant-baseline="bottom" text-anchor="start" font-style="normal" font-family="Arial, Verdana, sans-serif" font-weight="normal" font-size="10pt" y="27.49991" x="215.5" fill="#FFFFFF" tag="key">Public Sale</text>
  <text id="svg_68" dominant-baseline="bottom" text-anchor="start" font-style="normal" font-family="Arial, Verdana, sans-serif" font-weight="normal" font-size="10pt" y="27.49991" x="118.5" fill="#FFFFFF" tag="key">Private Sale</text>
  <text id="svg_65" dominant-baseline="bottom" text-anchor="start" font-style="normal" font-family="Arial, Verdana, sans-serif" font-weight="normal" font-size="10pt" y="27.49991" x="59.5" fill="#FFFFFF" tag="key">Team</text>
  <g id="svg_1" class="background1"/>
  <g id="svg_2" class="background2"/>
  <g id="svg_3" class="background3"/>
  <g id="svg_4" class="background4"/>
  <g id="svg_5" class="background5"/>
  <g id="svg_6" class="background6"/>
  <g id="svg_7" class="background7"/>
  <g id="svg_8" class="background8"/>
  <g id="svg_9" class="background9"/>
  <g id="svg_10" class="background10"/>
  <path id="svg_12" fill-opacity="0" shape-rendering="crispEdges" fill="#000000" stroke="#DDDDDD" d="m62,48.49991l585,0m-585,36l585,0m-585,36l585,0m-585,36l585,0m-585,36l585,0m-585,36l585,0m-585,0l585,0" class="rgraph_background_grid"/>
  <text id="svg_13" transform="rotate(-90, 62, 234.5)" dominant-baseline="middle" text-anchor="end" font-style="normal" font-family="Arial, Verdana, sans-serif" font-weight="normal" font-size="10pt" y="234.49991" x="62" fill="#FFFFFF" tag="labels.xaxis">2021 Q3</text>
  <text id="svg_14" transform="rotate(-90, 92.7895, 234.5)" dominant-baseline="middle" text-anchor="end" font-style="normal" font-family="Arial, Verdana, sans-serif" font-weight="normal" font-size="10pt" y="234.49991" x="92.78947" fill="#FFFFFF" tag="labels.xaxis">Q4</text>
  <text id="svg_15" transform="rotate(-90, 123.579, 234.5)" dominant-baseline="middle" text-anchor="end" font-style="normal" font-family="Arial, Verdana, sans-serif" font-weight="normal" font-size="10pt" y="234.49991" x="123.57895" fill="#FFFFFF" tag="labels.xaxis">2022 Q1</text>
  <text id="svg_16" transform="rotate(-90, 154.369, 234.5)" dominant-baseline="middle" text-anchor="end" font-style="normal" font-family="Arial, Verdana, sans-serif" font-weight="normal" font-size="10pt" y="234.49991" x="154.36842" fill="#FFFFFF" tag="labels.xaxis">Q2</text>
  <text id="svg_17" transform="rotate(-90, 185.158, 234.5)" dominant-baseline="middle" text-anchor="end" font-style="normal" font-family="Arial, Verdana, sans-serif" font-weight="normal" font-size="10pt" y="234.49991" x="185.1579" fill="#FFFFFF" tag="labels.xaxis">Q3</text>
  <text id="svg_18" transform="rotate(-90, 215.948, 234.5)" dominant-baseline="middle" text-anchor="end" font-style="normal" font-family="Arial, Verdana, sans-serif" font-weight="normal" font-size="10pt" y="234.49991" x="215.94737" fill="#FFFFFF" tag="labels.xaxis">Q4</text>
  <text id="svg_19" transform="rotate(-90, 246.737, 234.5)" dominant-baseline="middle" text-anchor="end" font-style="normal" font-family="Arial, Verdana, sans-serif" font-weight="normal" font-size="10pt" y="234.49991" x="246.73685" fill="#FFFFFF" tag="labels.xaxis">2023 Q1</text>
  <text id="svg_20" transform="rotate(-90, 277.527, 234.5)" dominant-baseline="middle" text-anchor="end" font-style="normal" font-family="Arial, Verdana, sans-serif" font-weight="normal" font-size="10pt" y="234.49991" x="277.52632" fill="#FFFFFF" tag="labels.xaxis">Q2</text>
  <text id="svg_21" transform="rotate(-90, 308.316, 234.5)" dominant-baseline="middle" text-anchor="end" font-style="normal" font-family="Arial, Verdana, sans-serif" font-weight="normal" font-size="10pt" y="234.49991" x="308.3158" fill="#FFFFFF" tag="labels.xaxis">Q3</text>
  <text id="svg_22" transform="rotate(-90, 339.106, 234.5)" dominant-baseline="middle" text-anchor="end" font-style="normal" font-family="Arial, Verdana, sans-serif" font-weight="normal" font-size="10pt" y="234.49991" x="339.10526" fill="#FFFFFF" tag="labels.xaxis">Q4</text>
  <text id="svg_23" transform="rotate(-90, 369.895, 234.5)" dominant-baseline="middle" text-anchor="end" font-style="normal" font-family="Arial, Verdana, sans-serif" font-weight="normal" font-size="10pt" y="234.49991" x="369.89474" fill="#FFFFFF" tag="labels.xaxis">2024 Q1</text>
  <text id="svg_24" transform="rotate(-90, 400.685, 234.5)" dominant-baseline="middle" text-anchor="end" font-style="normal" font-family="Arial, Verdana, sans-serif" font-weight="normal" font-size="10pt" y="234.49991" x="400.6842" fill="#FFFFFF" tag="labels.xaxis">Q2</text>
  <text id="svg_25" transform="rotate(-90, 431.474, 234.5)" dominant-baseline="middle" text-anchor="end" font-style="normal" font-family="Arial, Verdana, sans-serif" font-weight="normal" font-size="10pt" y="234.49991" x="431.47369" fill="#FFFFFF" tag="labels.xaxis">Q3</text>
  <text id="svg_26" transform="rotate(-90, 462.264, 234.5)" dominant-baseline="middle" text-anchor="end" font-style="normal" font-family="Arial, Verdana, sans-serif" font-weight="normal" font-size="10pt" y="234.49991" x="462.26315" fill="#FFFFFF" tag="labels.xaxis">Q4</text>
  <text id="svg_27" transform="rotate(-90, 493.053, 234.5)" dominant-baseline="middle" text-anchor="end" font-style="normal" font-family="Arial, Verdana, sans-serif" font-weight="normal" font-size="10pt" y="234.49991" x="493.05264" fill="#FFFFFF" tag="labels.xaxis">2025 Q1</text>
  <text id="svg_28" transform="rotate(-90, 523.842, 234.5)" dominant-baseline="middle" text-anchor="end" font-style="normal" font-family="Arial, Verdana, sans-serif" font-weight="normal" font-size="10pt" y="234.49991" x="523.8421" fill="#FFFFFF" tag="labels.xaxis">Q2</text>
  <text id="svg_29" transform="rotate(-90, 554.632, 234.5)" dominant-baseline="middle" text-anchor="end" font-style="normal" font-family="Arial, Verdana, sans-serif" font-weight="normal" font-size="10pt" y="234.49991" x="554.63159" fill="#FFFFFF" tag="labels.xaxis">Q3</text>
  <text id="svg_30" transform="rotate(-90, 585.421, 234.5)" dominant-baseline="middle" text-anchor="end" font-style="normal" font-family="Arial, Verdana, sans-serif" font-weight="normal" font-size="10pt" y="234.49991" x="585.42108" fill="#FFFFFF" tag="labels.xaxis">Q4</text>
  <text id="svg_31" transform="rotate(-90, 616.211, 234.5)" dominant-baseline="middle" text-anchor="end" font-style="normal" font-family="Arial, Verdana, sans-serif" font-weight="normal" font-size="10pt" y="234.49991" x="616.21051" fill="#FFFFFF" tag="labels.xaxis">2026 Q1</text>
  <text id="svg_32" transform="rotate(-90, 647, 234.5)" dominant-baseline="middle" text-anchor="end" font-style="normal" font-family="Arial, Verdana, sans-serif" font-weight="normal" font-size="10pt" y="234.49991" x="647" fill="#FFFFFF" tag="labels.xaxis">Q2</text>
  <text style="cursor: move;" id="svg_33" dominant-baseline="middle" text-anchor="end" font-style="normal" font-family="Arial, Verdana, sans-serif" font-weight="normal" font-size="10pt" y="192.49991" x="55" fill="#FFFFFF" tag="labels.yaxis">10m</text>
  <text style="cursor: move;" id="svg_34" dominant-baseline="middle" text-anchor="end" font-style="normal" font-family="Arial, Verdana, sans-serif" font-weight="normal" font-size="10pt" y="156.49991" x="55" fill="#FFFFFF" tag="labels.yaxis">20m</text>
  <text style="cursor: move;" id="svg_35" dominant-baseline="middle" text-anchor="end" font-style="normal" font-family="Arial, Verdana, sans-serif" font-weight="normal" font-size="10pt" y="120.49991" x="55" fill="#FFFFFF" tag="labels.yaxis">30m</text>
  <text style="cursor: move;" id="svg_36" dominant-baseline="middle" text-anchor="end" font-style="normal" font-family="Arial, Verdana, sans-serif" font-weight="normal" font-size="10pt" y="84.49991" x="55" fill="#FFFFFF" tag="labels.yaxis">40m</text>
  <text style="cursor: move;" id="svg_37" dominant-baseline="middle" text-anchor="end" font-style="normal" font-family="Arial, Verdana, sans-serif" font-weight="normal" font-size="10pt" y="48.49991" x="55" fill="#FFFFFF" tag="labels.yaxis">50m</text>
  <text style="cursor: move;" id="svg_38" dominant-baseline="middle" text-anchor="end" font-style="normal" font-family="Arial, Verdana, sans-serif" font-weight="normal" font-size="10pt" y="228.49991" x="55" fill="#FFFFFF" tag="labels.yaxis">$SPR 0</text>
  <g id="svg_39" class="rgraph_filled_line_0">
   <path id="svg_40" stroke-opacity="0" fill-opacity="0.7" fill="#4F000B" stroke="#000000" d="m62,228.49991l9.91525,0l9.91526,0l9.91525,-27l9.91526,0l9.91525,0l9.91526,0l9.91525,0l9.91525,0l9.91526,0l9.91525,0l9.91526,0l9.91525,0l9.91526,0l9.91525,0l9.91525,0l9.91526,0l9.91525,0l9.91526,0l9.91525,0l9.91525,0l9.91526,0l9.91525,0l9.91526,0l9.91525,0l9.91526,0l9.91525,0l9.91525,0l9.91526,0l9.91525,0l9.91526,0l9.91525,0l9.91526,0l9.91525,0l9.91525,0l9.91526,0l9.91525,0l9.91526,0l9.91525,0l9.91526,0l9.91525,0l9.91525,0l9.91526,0l9.91525,0l9.91526,0l9.91525,0l9.91525,0l9.91526,0l9.91525,0l9.91526,0l9.91525,0l9.91526,0l9.91525,0l9.91525,0l9.91526,0l9.91525,0l9.91526,0l9.91525,0l9.91526,0l9.91525,0l1,28l-586,0l0,-1l0,0"/>
   <path id="svg_41" stroke-opacity="0.7" stroke-linejoin="round" stroke-linecap="round" stroke-width="0.1px" stroke-dasharray="1,0" fill="none" stroke="#4F000B" d="m62,228.49991l9.91525,0l9.91526,0l9.91525,-27l9.91526,0l9.91525,0l9.91526,0l9.91525,0l9.91525,0l9.91526,0l9.91525,0l9.91526,0l9.91525,0l9.91526,0l9.91525,0l9.91525,0l9.91526,0l9.91525,0l9.91526,0l9.91525,0l9.91525,0l9.91526,0l9.91525,0l9.91526,0l9.91525,0l9.91526,0l9.91525,0l9.91525,0l9.91526,0l9.91525,0l9.91526,0l9.91525,0l9.91526,0l9.91525,0l9.91525,0l9.91526,0l9.91525,0l9.91526,0l9.91525,0l9.91526,0l9.91525,0l9.91525,0l9.91526,0l9.91525,0l9.91526,0l9.91525,0l9.91525,0l9.91526,0l9.91525,0l9.91526,0l9.91525,0l9.91526,0l9.91525,0l9.91525,0l9.91526,0l9.91525,0l9.91526,0l9.91525,0l9.91526,0l9.91525,0"/>
   <path id="svg_42" stroke-opacity="0.7" stroke-linejoin="round" stroke-linecap="round" stroke-width="1.01px" stroke-dasharray="1,0" fill="none" stroke="#4F000B" d="m62,228.49991l9.91525,0l9.91526,0l9.91525,-27l9.91526,0l9.91525,0l9.91526,0l9.91525,0l9.91525,0l9.91526,0l9.91525,0l9.91526,0l9.91525,0l9.91526,0l9.91525,0l9.91525,0l9.91526,0l9.91525,0l9.91526,0l9.91525,0l9.91525,0l9.91526,0l9.91525,0l9.91526,0l9.91525,0l9.91526,0l9.91525,0l9.91525,0l9.91526,0l9.91525,0l9.91526,0l9.91525,0l9.91526,0l9.91525,0l9.91525,0l9.91526,0l9.91525,0l9.91526,0l9.91525,0l9.91526,0l9.91525,0l9.91525,0l9.91526,0l9.91525,0l9.91526,0l9.91525,0l9.91525,0l9.91526,0l9.91525,0l9.91526,0l9.91525,0l9.91526,0l9.91525,0l9.91525,0l9.91526,0l9.91525,0l9.91526,0l9.91525,0l9.91526,0l9.91525,0"/>
  </g>
  <g id="svg_43" class="rgraph_filled_line_1">
   <path id="svg_44" stroke-opacity="0" fill-opacity="0.7" fill="#720026" stroke="#000000" d="m62,228.49991l9.91525,0l9.91526,0l9.91525,-27l9.91526,0l9.91525,0l9.91526,-21.6l9.91525,0l9.91525,0l9.91526,0l9.91525,0l9.91526,0l9.91525,0l9.91526,0l9.91525,0l9.91525,0l9.91526,0l9.91525,0l9.91526,0l9.91525,0l9.91525,0l9.91526,0l9.91525,0l9.91526,0l9.91525,0l9.91526,0l9.91525,0l9.91525,0l9.91526,0l9.91525,0l9.91526,0l9.91525,0l9.91526,0l9.91525,0l9.91525,0l9.91526,0l9.91525,0l9.91526,0l9.91525,0l9.91526,0l9.91525,0l9.91525,0l9.91526,0l9.91525,0l9.91526,0l9.91525,0l9.91525,0l9.91526,0l9.91525,0l9.91526,0l9.91525,0l9.91526,0l9.91525,0l9.91525,0l9.91526,0l9.91525,0l9.91526,0l9.91525,0l9.91526,0l9.91525,0l1,21.6l-1,0l-9.91525,0l-9.91526,0l-9.91525,0l-9.91526,0l-9.91525,0l-9.91526,0l-9.91525,0l-9.91525,0l-9.91526,0l-9.91525,0l-9.91526,0l-9.91525,0l-9.91526,0l-9.91525,0l-9.91525,0l-9.91526,0l-9.91525,0l-9.91526,0l-9.91525,0l-9.91525,0l-9.91526,0l-9.91525,0l-9.91526,0l-9.91525,0l-9.91526,0l-9.91525,0l-9.91525,0l-9.91526,0l-9.91525,0l-9.91526,0l-9.91525,0l-9.91526,0l-9.91525,0l-9.91525,0l-9.91526,0l-9.91525,0l-9.91526,0l-9.91525,0l-9.91526,0l-9.91525,0l-9.91525,0l-9.91526,0l-9.91525,0l-9.91526,0l-9.91525,0l-9.91525,0l-9.91526,0l-9.91525,0l-9.91526,0l-9.91525,0l-9.91526,0l-9.91525,0l-9.91525,0l-9.91526,0l-9.91525,0l-9.91526,0l-9.91525,27l-9.91526,0l-9.91525,0l0,0l0,0"/>
   <path id="svg_45" stroke-opacity="0.7" stroke-linejoin="round" stroke-linecap="round" stroke-width="0.1px" stroke-dasharray="1,0" fill="none" stroke="#720026" d="m62,228.49991l9.91525,0l9.91526,0l9.91525,-27l9.91526,0l9.91525,0l9.91526,-21.6l9.91525,0l9.91525,0l9.91526,0l9.91525,0l9.91526,0l9.91525,0l9.91526,0l9.91525,0l9.91525,0l9.91526,0l9.91525,0l9.91526,0l9.91525,0l9.91525,0l9.91526,0l9.91525,0l9.91526,0l9.91525,0l9.91526,0l9.91525,0l9.91525,0l9.91526,0l9.91525,0l9.91526,0l9.91525,0l9.91526,0l9.91525,0l9.91525,0l9.91526,0l9.91525,0l9.91526,0l9.91525,0l9.91526,0l9.91525,0l9.91525,0l9.91526,0l9.91525,0l9.91526,0l9.91525,0l9.91525,0l9.91526,0l9.91525,0l9.91526,0l9.91525,0l9.91526,0l9.91525,0l9.91525,0l9.91526,0l9.91525,0l9.91526,0l9.91525,0l9.91526,0l9.91525,0l0,21.6l-9.91525,0l-9.91526,0l-9.91525,0l-9.91526,0l-9.91525,0l-9.91526,0l-9.91525,0l-9.91525,0l-9.91526,0l-9.91525,0l-9.91526,0l-9.91525,0l-9.91526,0l-9.91525,0l-9.91525,0l-9.91526,0l-9.91525,0l-9.91526,0l-9.91525,0l-9.91525,0l-9.91526,0l-9.91525,0l-9.91526,0l-9.91525,0l-9.91526,0l-9.91525,0l-9.91525,0l-9.91526,0l-9.91525,0l-9.91526,0l-9.91525,0l-9.91526,0l-9.91525,0l-9.91525,0l-9.91526,0l-9.91525,0l-9.91526,0l-9.91525,0l-9.91526,0l-9.91525,0l-9.91525,0l-9.91526,0l-9.91525,0l-9.91526,0l-9.91525,0l-9.91525,0l-9.91526,0l-9.91525,0l-9.91526,0l-9.91525,0l-9.91526,0l-9.91525,0l-9.91525,0l-9.91526,0l-9.91525,0l-9.91526,0l-9.91525,27l-9.91526,0l-9.91525,0"/>
   <path id="svg_46" stroke-opacity="0.7" stroke-linejoin="round" stroke-linecap="round" stroke-width="1.01px" stroke-dasharray="1,0" fill="none" stroke="#720026" d="m62,228.49991l9.91525,0l9.91526,0l9.91525,-27l9.91526,0l9.91525,0l9.91526,-21.6l9.91525,0l9.91525,0l9.91526,0l9.91525,0l9.91526,0l9.91525,0l9.91526,0l9.91525,0l9.91525,0l9.91526,0l9.91525,0l9.91526,0l9.91525,0l9.91525,0l9.91526,0l9.91525,0l9.91526,0l9.91525,0l9.91526,0l9.91525,0l9.91525,0l9.91526,0l9.91525,0l9.91526,0l9.91525,0l9.91526,0l9.91525,0l9.91525,0l9.91526,0l9.91525,0l9.91526,0l9.91525,0l9.91526,0l9.91525,0l9.91525,0l9.91526,0l9.91525,0l9.91526,0l9.91525,0l9.91525,0l9.91526,0l9.91525,0l9.91526,0l9.91525,0l9.91526,0l9.91525,0l9.91525,0l9.91526,0l9.91525,0l9.91526,0l9.91525,0l9.91526,0l9.91525,0"/>
  </g>
  <g id="svg_47" class="rgraph_filled_line_2">
   <path id="svg_48" stroke-opacity="0" fill-opacity="0.7" fill="#CE4257" stroke="#000000" d="m62,228.49991l9.91525,0l9.91526,0l9.91525,-27l9.91526,0l9.91525,0l9.91526,-21.6l9.91525,0l9.91525,0l9.91526,-14.4l9.91525,0l9.91526,0l9.91525,0l9.91526,0l9.91525,0l9.91525,0l9.91526,0l9.91525,0l9.91526,0l9.91525,0l9.91525,0l9.91526,0l9.91525,0l9.91526,0l9.91525,0l9.91526,0l9.91525,0l9.91525,0l9.91526,0l9.91525,0l9.91526,0l9.91525,0l9.91526,0l9.91525,0l9.91525,0l9.91526,0l9.91525,0l9.91526,0l9.91525,0l9.91526,0l9.91525,0l9.91525,0l9.91526,0l9.91525,0l9.91526,0l9.91525,0l9.91525,0l9.91526,0l9.91525,0l9.91526,0l9.91525,0l9.91526,0l9.91525,0l9.91525,0l9.91526,0l9.91525,0l9.91526,0l9.91525,0l9.91526,0l9.91525,0l1,14.4l-1,0l-9.91525,0l-9.91526,0l-9.91525,0l-9.91526,0l-9.91525,0l-9.91526,0l-9.91525,0l-9.91525,0l-9.91526,0l-9.91525,0l-9.91526,0l-9.91525,0l-9.91526,0l-9.91525,0l-9.91525,0l-9.91526,0l-9.91525,0l-9.91526,0l-9.91525,0l-9.91525,0l-9.91526,0l-9.91525,0l-9.91526,0l-9.91525,0l-9.91526,0l-9.91525,0l-9.91525,0l-9.91526,0l-9.91525,0l-9.91526,0l-9.91525,0l-9.91526,0l-9.91525,0l-9.91525,0l-9.91526,0l-9.91525,0l-9.91526,0l-9.91525,0l-9.91526,0l-9.91525,0l-9.91525,0l-9.91526,0l-9.91525,0l-9.91526,0l-9.91525,0l-9.91525,0l-9.91526,0l-9.91525,0l-9.91526,0l-9.91525,0l-9.91526,0l-9.91525,0l-9.91525,0l-9.91526,21.6l-9.91525,0l-9.91526,0l-9.91525,27l-9.91526,0l-9.91525,0l0,0l0,0"/>
   <path id="svg_49" stroke-opacity="0.7" stroke-linejoin="round" stroke-linecap="round" stroke-width="0.1px" stroke-dasharray="1,0" fill="none" stroke="#CE4257" d="m62,228.49991l9.91525,0l9.91526,0l9.91525,-27l9.91526,0l9.91525,0l9.91526,-21.6l9.91525,0l9.91525,0l9.91526,-14.4l9.91525,0l9.91526,0l9.91525,0l9.91526,0l9.91525,0l9.91525,0l9.91526,0l9.91525,0l9.91526,0l9.91525,0l9.91525,0l9.91526,0l9.91525,0l9.91526,0l9.91525,0l9.91526,0l9.91525,0l9.91525,0l9.91526,0l9.91525,0l9.91526,0l9.91525,0l9.91526,0l9.91525,0l9.91525,0l9.91526,0l9.91525,0l9.91526,0l9.91525,0l9.91526,0l9.91525,0l9.91525,0l9.91526,0l9.91525,0l9.91526,0l9.91525,0l9.91525,0l9.91526,0l9.91525,0l9.91526,0l9.91525,0l9.91526,0l9.91525,0l9.91525,0l9.91526,0l9.91525,0l9.91526,0l9.91525,0l9.91526,0l9.91525,0l0,14.4l-9.91525,0l-9.91526,0l-9.91525,0l-9.91526,0l-9.91525,0l-9.91526,0l-9.91525,0l-9.91525,0l-9.91526,0l-9.91525,0l-9.91526,0l-9.91525,0l-9.91526,0l-9.91525,0l-9.91525,0l-9.91526,0l-9.91525,0l-9.91526,0l-9.91525,0l-9.91525,0l-9.91526,0l-9.91525,0l-9.91526,0l-9.91525,0l-9.91526,0l-9.91525,0l-9.91525,0l-9.91526,0l-9.91525,0l-9.91526,0l-9.91525,0l-9.91526,0l-9.91525,0l-9.91525,0l-9.91526,0l-9.91525,0l-9.91526,0l-9.91525,0l-9.91526,0l-9.91525,0l-9.91525,0l-9.91526,0l-9.91525,0l-9.91526,0l-9.91525,0l-9.91525,0l-9.91526,0l-9.91525,0l-9.91526,0l-9.91525,0l-9.91526,0l-9.91525,0l-9.91525,0l-9.91526,21.6l-9.91525,0l-9.91526,0l-9.91525,27l-9.91526,0l-9.91525,0"/>
   <path id="svg_50" stroke-opacity="0.7" stroke-linejoin="round" stroke-linecap="round" stroke-width="1.01px" stroke-dasharray="1,0" fill="none" stroke="#CE4257" d="m62,228.49991l9.91525,0l9.91526,0l9.91525,-27l9.91526,0l9.91525,0l9.91526,-21.6l9.91525,0l9.91525,0l9.91526,-14.4l9.91525,0l9.91526,0l9.91525,0l9.91526,0l9.91525,0l9.91525,0l9.91526,0l9.91525,0l9.91526,0l9.91525,0l9.91525,0l9.91526,0l9.91525,0l9.91526,0l9.91525,0l9.91526,0l9.91525,0l9.91525,0l9.91526,0l9.91525,0l9.91526,0l9.91525,0l9.91526,0l9.91525,0l9.91525,0l9.91526,0l9.91525,0l9.91526,0l9.91525,0l9.91526,0l9.91525,0l9.91525,0l9.91526,0l9.91525,0l9.91526,0l9.91525,0l9.91525,0l9.91526,0l9.91525,0l9.91526,0l9.91525,0l9.91526,0l9.91525,0l9.91525,0l9.91526,0l9.91525,0l9.91526,0l9.91525,0l9.91526,0l9.91525,0"/>
  </g>
  <g id="svg_51" class="rgraph_filled_line_3">
   <path id="svg_52" stroke-opacity="0" fill-opacity="0.7" fill="#FF7F51" stroke="#000000" d="m62,228.49991l9.91525,0l9.91526,0l9.91525,-27l9.91526,0l9.91525,0l9.91526,-21.6l9.91525,0l9.91525,0l9.91526,-14.4l9.91525,-63l9.91526,0l9.91525,0l9.91526,0l9.91525,0l9.91525,0l9.91526,0l9.91525,0l9.91526,0l9.91525,0l9.91525,0l9.91526,0l9.91525,0l9.91526,0l9.91525,0l9.91526,0l9.91525,0l9.91525,0l9.91526,0l9.91525,0l9.91526,0l9.91525,0l9.91526,0l9.91525,0l9.91525,0l9.91526,0l9.91525,0l9.91526,0l9.91525,0l9.91526,0l9.91525,0l9.91525,0l9.91526,0l9.91525,0l9.91526,0l9.91525,0l9.91525,0l9.91526,0l9.91525,0l9.91526,0l9.91525,0l9.91526,0l9.91525,0l9.91525,0l9.91526,0l9.91525,0l9.91526,0l9.91525,0l9.91526,0l9.91525,0l1,63l-1,0l-9.91525,0l-9.91526,0l-9.91525,0l-9.91526,0l-9.91525,0l-9.91526,0l-9.91525,0l-9.91525,0l-9.91526,0l-9.91525,0l-9.91526,0l-9.91525,0l-9.91526,0l-9.91525,0l-9.91525,0l-9.91526,0l-9.91525,0l-9.91526,0l-9.91525,0l-9.91525,0l-9.91526,0l-9.91525,0l-9.91526,0l-9.91525,0l-9.91526,0l-9.91525,0l-9.91525,0l-9.91526,0l-9.91525,0l-9.91526,0l-9.91525,0l-9.91526,0l-9.91525,0l-9.91525,0l-9.91526,0l-9.91525,0l-9.91526,0l-9.91525,0l-9.91526,0l-9.91525,0l-9.91525,0l-9.91526,0l-9.91525,0l-9.91526,0l-9.91525,0l-9.91525,0l-9.91526,0l-9.91525,0l-9.91526,0l-9.91525,0l-9.91526,14.4l-9.91525,0l-9.91525,0l-9.91526,21.6l-9.91525,0l-9.91526,0l-9.91525,27l-9.91526,0l-9.91525,0l0,0l0,0"/>
   <path id="svg_53" stroke-opacity="0.7" stroke-linejoin="round" stroke-linecap="round" stroke-width="0.1px" stroke-dasharray="1,0" fill="none" stroke="#FF7F51" d="m62,228.49991l9.91525,0l9.91526,0l9.91525,-27l9.91526,0l9.91525,0l9.91526,-21.6l9.91525,0l9.91525,0l9.91526,-14.4l9.91525,-63l9.91526,0l9.91525,0l9.91526,0l9.91525,0l9.91525,0l9.91526,0l9.91525,0l9.91526,0l9.91525,0l9.91525,0l9.91526,0l9.91525,0l9.91526,0l9.91525,0l9.91526,0l9.91525,0l9.91525,0l9.91526,0l9.91525,0l9.91526,0l9.91525,0l9.91526,0l9.91525,0l9.91525,0l9.91526,0l9.91525,0l9.91526,0l9.91525,0l9.91526,0l9.91525,0l9.91525,0l9.91526,0l9.91525,0l9.91526,0l9.91525,0l9.91525,0l9.91526,0l9.91525,0l9.91526,0l9.91525,0l9.91526,0l9.91525,0l9.91525,0l9.91526,0l9.91525,0l9.91526,0l9.91525,0l9.91526,0l9.91525,0l0,63l-9.91525,0l-9.91526,0l-9.91525,0l-9.91526,0l-9.91525,0l-9.91526,0l-9.91525,0l-9.91525,0l-9.91526,0l-9.91525,0l-9.91526,0l-9.91525,0l-9.91526,0l-9.91525,0l-9.91525,0l-9.91526,0l-9.91525,0l-9.91526,0l-9.91525,0l-9.91525,0l-9.91526,0l-9.91525,0l-9.91526,0l-9.91525,0l-9.91526,0l-9.91525,0l-9.91525,0l-9.91526,0l-9.91525,0l-9.91526,0l-9.91525,0l-9.91526,0l-9.91525,0l-9.91525,0l-9.91526,0l-9.91525,0l-9.91526,0l-9.91525,0l-9.91526,0l-9.91525,0l-9.91525,0l-9.91526,0l-9.91525,0l-9.91526,0l-9.91525,0l-9.91525,0l-9.91526,0l-9.91525,0l-9.91526,0l-9.91525,0l-9.91526,14.4l-9.91525,0l-9.91525,0l-9.91526,21.6l-9.91525,0l-9.91526,0l-9.91525,27l-9.91526,0l-9.91525,0"/>
   <path id="svg_54" stroke-opacity="0.7" stroke-linejoin="round" stroke-linecap="round" stroke-width="1.01px" stroke-dasharray="1,0" fill="none" stroke="#FF7F51" d="m62,228.49991l9.91525,0l9.91526,0l9.91525,-27l9.91526,0l9.91525,0l9.91526,-21.6l9.91525,0l9.91525,0l9.91526,-14.4l9.91525,-63l9.91526,0l9.91525,0l9.91526,0l9.91525,0l9.91525,0l9.91526,0l9.91525,0l9.91526,0l9.91525,0l9.91525,0l9.91526,0l9.91525,0l9.91526,0l9.91525,0l9.91526,0l9.91525,0l9.91525,0l9.91526,0l9.91525,0l9.91526,0l9.91525,0l9.91526,0l9.91525,0l9.91525,0l9.91526,0l9.91525,0l9.91526,0l9.91525,0l9.91526,0l9.91525,0l9.91525,0l9.91526,0l9.91525,0l9.91526,0l9.91525,0l9.91525,0l9.91526,0l9.91525,0l9.91526,0l9.91525,0l9.91526,0l9.91525,0l9.91525,0l9.91526,0l9.91525,0l9.91526,0l9.91525,0l9.91526,0l9.91525,0"/>
  </g>
  <g id="svg_55" class="rgraph_filled_line_4">
   <path id="svg_56" stroke-opacity="0" fill-opacity="0.7" fill="#FF9B54" stroke="#000000" d="m62,228.49991l9.91525,0l9.91526,0l9.91525,-27l9.91526,0l9.91525,0l9.91526,-21.6l9.91525,0l9.91525,0l9.91526,-14.4l9.91525,-63l9.91526,-1.0008l9.91525,-1.0008l9.91526,-0.9972l9.91525,-1.0008l9.91525,-1.0008l9.91526,-1.0008l9.91525,-0.9972l9.91526,-1.0008l9.91525,-1.0008l9.91525,-1.0008l9.91526,-1.0008l9.91525,-0.9972l9.91526,-1.0008l9.91525,-1.0008l9.91526,-1.0008l9.91525,-0.9972l9.91525,-1.0008l9.91526,-1.0008l9.91525,-1.0008l9.91526,-1.0008l9.91525,-0.9972l9.91526,-1.0008l9.91525,-1.0008l9.91525,-1.0008l9.91526,-0.9972l9.91525,-1.0008l9.91526,-1.0008l9.91525,-1.0008l9.91526,-1.0008l9.91525,-0.9972l9.91525,-1.0008l9.91526,-1.0008l9.91525,-1.0008l9.91526,-0.9972l9.91525,-1.0008l9.91525,-1.0008l9.91526,0l9.91525,0l9.91526,0l9.91525,0l9.91526,0l9.91525,0l9.91525,0l9.91526,0l9.91525,0l9.91526,0l9.91525,0l9.91526,0l9.91525,0l1,36l-1,0l-9.91525,0l-9.91526,0l-9.91525,0l-9.91526,0l-9.91525,0l-9.91526,0l-9.91525,0l-9.91525,0l-9.91526,0l-9.91525,0l-9.91526,0l-9.91525,0l-9.91526,0l-9.91525,0l-9.91525,0l-9.91526,0l-9.91525,0l-9.91526,0l-9.91525,0l-9.91525,0l-9.91526,0l-9.91525,0l-9.91526,0l-9.91525,0l-9.91526,0l-9.91525,0l-9.91525,0l-9.91526,0l-9.91525,0l-9.91526,0l-9.91525,0l-9.91526,0l-9.91525,0l-9.91525,0l-9.91526,0l-9.91525,0l-9.91526,0l-9.91525,0l-9.91526,0l-9.91525,0l-9.91525,0l-9.91526,0l-9.91525,0l-9.91526,0l-9.91525,0l-9.91525,0l-9.91526,0l-9.91525,0l-9.91526,0l-9.91525,63l-9.91526,14.4l-9.91525,0l-9.91525,0l-9.91526,21.6l-9.91525,0l-9.91526,0l-9.91525,27l-9.91526,0l-9.91525,0l0,0l0,0"/>
   <path id="svg_57" stroke-opacity="0.7" stroke-linejoin="round" stroke-linecap="round" stroke-width="0.1px" stroke-dasharray="1,0" fill="none" stroke="#FF9B54" d="m62,228.49991l9.91525,0l9.91526,0l9.91525,-27l9.91526,0l9.91525,0l9.91526,-21.6l9.91525,0l9.91525,0l9.91526,-14.4l9.91525,-63l9.91526,-1.0008l9.91525,-1.0008l9.91526,-0.9972l9.91525,-1.0008l9.91525,-1.0008l9.91526,-1.0008l9.91525,-0.9972l9.91526,-1.0008l9.91525,-1.0008l9.91525,-1.0008l9.91526,-1.0008l9.91525,-0.9972l9.91526,-1.0008l9.91525,-1.0008l9.91526,-1.0008l9.91525,-0.9972l9.91525,-1.0008l9.91526,-1.0008l9.91525,-1.0008l9.91526,-1.0008l9.91525,-0.9972l9.91526,-1.0008l9.91525,-1.0008l9.91525,-1.0008l9.91526,-0.9972l9.91525,-1.0008l9.91526,-1.0008l9.91525,-1.0008l9.91526,-1.0008l9.91525,-0.9972l9.91525,-1.0008l9.91526,-1.0008l9.91525,-1.0008l9.91526,-0.9972l9.91525,-1.0008l9.91525,-1.0008l9.91526,0l9.91525,0l9.91526,0l9.91525,0l9.91526,0l9.91525,0l9.91525,0l9.91526,0l9.91525,0l9.91526,0l9.91525,0l9.91526,0l9.91525,0l0,36l-9.91525,0l-9.91526,0l-9.91525,0l-9.91526,0l-9.91525,0l-9.91526,0l-9.91525,0l-9.91525,0l-9.91526,0l-9.91525,0l-9.91526,0l-9.91525,0l-9.91526,0l-9.91525,0l-9.91525,0l-9.91526,0l-9.91525,0l-9.91526,0l-9.91525,0l-9.91525,0l-9.91526,0l-9.91525,0l-9.91526,0l-9.91525,0l-9.91526,0l-9.91525,0l-9.91525,0l-9.91526,0l-9.91525,0l-9.91526,0l-9.91525,0l-9.91526,0l-9.91525,0l-9.91525,0l-9.91526,0l-9.91525,0l-9.91526,0l-9.91525,0l-9.91526,0l-9.91525,0l-9.91525,0l-9.91526,0l-9.91525,0l-9.91526,0l-9.91525,0l-9.91525,0l-9.91526,0l-9.91525,0l-9.91526,0l-9.91525,63l-9.91526,14.4l-9.91525,0l-9.91525,0l-9.91526,21.6l-9.91525,0l-9.91526,0l-9.91525,27l-9.91526,0l-9.91525,0"/>
   <path id="svg_58" stroke-opacity="0.7" stroke-linejoin="round" stroke-linecap="round" stroke-width="1.01px" stroke-dasharray="1,0" fill="none" stroke="#FF9B54" d="m62,228.49991l9.91525,0l9.91526,0l9.91525,-27l9.91526,0l9.91525,0l9.91526,-21.6l9.91525,0l9.91525,0l9.91526,-14.4l9.91525,-63l9.91526,-1.0008l9.91525,-1.0008l9.91526,-0.9972l9.91525,-1.0008l9.91525,-1.0008l9.91526,-1.0008l9.91525,-0.9972l9.91526,-1.0008l9.91525,-1.0008l9.91525,-1.0008l9.91526,-1.0008l9.91525,-0.9972l9.91526,-1.0008l9.91525,-1.0008l9.91526,-1.0008l9.91525,-0.9972l9.91525,-1.0008l9.91526,-1.0008l9.91525,-1.0008l9.91526,-1.0008l9.91525,-0.9972l9.91526,-1.0008l9.91525,-1.0008l9.91525,-1.0008l9.91526,-0.9972l9.91525,-1.0008l9.91526,-1.0008l9.91525,-1.0008l9.91526,-1.0008l9.91525,-0.9972l9.91525,-1.0008l9.91526,-1.0008l9.91525,-1.0008l9.91526,-0.9972l9.91525,-1.0008l9.91525,-1.0008l9.91526,0l9.91525,0l9.91526,0l9.91525,0l9.91526,0l9.91525,0l9.91525,0l9.91526,0l9.91525,0l9.91526,0l9.91525,0l9.91526,0l9.91525,0"/>
  </g>
  <g id="svg_59" class="rgraph_filled_line_5">
   <path id="svg_60" stroke-opacity="0" fill-opacity="0.7" fill="#FFB885" stroke="#000000" d="m62,228.49991l9.91525,0l9.91526,0l9.91525,-27l9.91526,0l9.91525,0l9.91526,-21.6l9.91525,0l9.91525,0l9.91526,-14.4l9.91525,-63l9.91526,-1.0008l9.91525,-1.0008l9.91526,-1.4976l9.91525,-1.5012l9.91525,-1.5012l9.91526,-1.5012l9.91525,-1.494l9.91526,-1.5012l9.91525,-1.5012l9.91525,-1.5012l9.91526,-1.5012l9.91525,-1.4976l9.91526,-1.5012l9.91525,-1.5012l9.91526,-1.5012l9.91525,-1.494l9.91525,-1.5012l9.91526,-1.5012l9.91525,-1.5012l9.91526,-1.5012l9.91525,-1.4976l9.91526,-1.5012l9.91525,-1.5012l9.91525,-1.5012l9.91526,-1.494l9.91525,-1.5012l9.91526,-1.5012l9.91525,-1.5012l9.91526,-1.5012l9.91525,-1.4976l9.91525,-1.5012l9.91526,-1.5012l9.91525,-1.5012l9.91526,-1.494l9.91525,-1.5012l9.91525,-1.5012l9.91526,-0.5004l9.91525,-0.5004l9.91526,0l9.91525,0l9.91526,0l9.91525,0l9.91525,0l9.91526,0l9.91525,0l9.91526,0l9.91525,0l9.91526,0l9.91525,0l1,18l-1,0l-9.91525,0l-9.91526,0l-9.91525,0l-9.91526,0l-9.91525,0l-9.91526,0l-9.91525,0l-9.91525,0l-9.91526,0l-9.91525,0l-9.91526,0l-9.91525,0l-9.91526,0l-9.91525,1.0008l-9.91525,1.0008l-9.91526,0.9972l-9.91525,1.0008l-9.91526,1.0008l-9.91525,1.0008l-9.91525,0.9972l-9.91526,1.0008l-9.91525,1.0008l-9.91526,1.0008l-9.91525,1.0008l-9.91526,0.9972l-9.91525,1.0008l-9.91525,1.0008l-9.91526,1.0008l-9.91525,0.9972l-9.91526,1.0008l-9.91525,1.0008l-9.91526,1.0008l-9.91525,1.0008l-9.91525,0.9972l-9.91526,1.0008l-9.91525,1.0008l-9.91526,1.0008l-9.91525,0.9972l-9.91526,1.0008l-9.91525,1.0008l-9.91525,1.0008l-9.91526,1.0008l-9.91525,0.9972l-9.91526,1.0008l-9.91525,1.0008l-9.91525,1.0008l-9.91526,0.9972l-9.91525,1.0008l-9.91526,1.0008l-9.91525,63l-9.91526,14.4l-9.91525,0l-9.91525,0l-9.91526,21.6l-9.91525,0l-9.91526,0l-9.91525,27l-9.91526,0l-9.91525,0l0,0l0,0"/>
   <path id="svg_61" stroke-opacity="0.7" stroke-linejoin="round" stroke-linecap="round" stroke-width="0.1px" stroke-dasharray="1,0" fill="none" stroke="#FFB885" d="m62,228.49991l9.91525,0l9.91526,0l9.91525,-27l9.91526,0l9.91525,0l9.91526,-21.6l9.91525,0l9.91525,0l9.91526,-14.4l9.91525,-63l9.91526,-1.0008l9.91525,-1.0008l9.91526,-1.4976l9.91525,-1.5012l9.91525,-1.5012l9.91526,-1.5012l9.91525,-1.494l9.91526,-1.5012l9.91525,-1.5012l9.91525,-1.5012l9.91526,-1.5012l9.91525,-1.4976l9.91526,-1.5012l9.91525,-1.5012l9.91526,-1.5012l9.91525,-1.494l9.91525,-1.5012l9.91526,-1.5012l9.91525,-1.5012l9.91526,-1.5012l9.91525,-1.4976l9.91526,-1.5012l9.91525,-1.5012l9.91525,-1.5012l9.91526,-1.494l9.91525,-1.5012l9.91526,-1.5012l9.91525,-1.5012l9.91526,-1.5012l9.91525,-1.4976l9.91525,-1.5012l9.91526,-1.5012l9.91525,-1.5012l9.91526,-1.494l9.91525,-1.5012l9.91525,-1.5012l9.91526,-0.5004l9.91525,-0.5004l9.91526,0l9.91525,0l9.91526,0l9.91525,0l9.91525,0l9.91526,0l9.91525,0l9.91526,0l9.91525,0l9.91526,0l9.91525,0l0,18l-9.91525,0l-9.91526,0l-9.91525,0l-9.91526,0l-9.91525,0l-9.91526,0l-9.91525,0l-9.91525,0l-9.91526,0l-9.91525,0l-9.91526,0l-9.91525,0l-9.91526,0l-9.91525,1.0008l-9.91525,1.0008l-9.91526,0.9972l-9.91525,1.0008l-9.91526,1.0008l-9.91525,1.0008l-9.91525,0.9972l-9.91526,1.0008l-9.91525,1.0008l-9.91526,1.0008l-9.91525,1.0008l-9.91526,0.9972l-9.91525,1.0008l-9.91525,1.0008l-9.91526,1.0008l-9.91525,0.9972l-9.91526,1.0008l-9.91525,1.0008l-9.91526,1.0008l-9.91525,1.0008l-9.91525,0.9972l-9.91526,1.0008l-9.91525,1.0008l-9.91526,1.0008l-9.91525,0.9972l-9.91526,1.0008l-9.91525,1.0008l-9.91525,1.0008l-9.91526,1.0008l-9.91525,0.9972l-9.91526,1.0008l-9.91525,1.0008l-9.91525,1.0008l-9.91526,0.9972l-9.91525,1.0008l-9.91526,1.0008l-9.91525,63l-9.91526,14.4l-9.91525,0l-9.91525,0l-9.91526,21.6l-9.91525,0l-9.91526,0l-9.91525,27l-9.91526,0l-9.91525,0"/>
   <path id="svg_62" stroke-opacity="0.7" stroke-linejoin="round" stroke-linecap="round" stroke-width="1.01px" stroke-dasharray="1,0" fill="none" stroke="#FFB885" d="m62,228.49991l9.91525,0l9.91526,0l9.91525,-27l9.91526,0l9.91525,0l9.91526,-21.6l9.91525,0l9.91525,0l9.91526,-14.4l9.91525,-63l9.91526,-1.0008l9.91525,-1.0008l9.91526,-1.4976l9.91525,-1.5012l9.91525,-1.5012l9.91526,-1.5012l9.91525,-1.494l9.91526,-1.5012l9.91525,-1.5012l9.91525,-1.5012l9.91526,-1.5012l9.91525,-1.4976l9.91526,-1.5012l9.91525,-1.5012l9.91526,-1.5012l9.91525,-1.494l9.91525,-1.5012l9.91526,-1.5012l9.91525,-1.5012l9.91526,-1.5012l9.91525,-1.4976l9.91526,-1.5012l9.91525,-1.5012l9.91525,-1.5012l9.91526,-1.494l9.91525,-1.5012l9.91526,-1.5012l9.91525,-1.5012l9.91526,-1.5012l9.91525,-1.4976l9.91525,-1.5012l9.91526,-1.5012l9.91525,-1.5012l9.91526,-1.494l9.91525,-1.5012l9.91525,-1.5012l9.91526,-0.5004l9.91525,-0.5004l9.91526,0l9.91525,0l9.91526,0l9.91525,0l9.91525,0l9.91526,0l9.91525,0l9.91526,0l9.91525,0l9.91526,0l9.91525,0"/>
  </g>
  <circle id="svg_63" fill-opacity="0.7" fill="#4F000B" r="6.5" cy="21.99991" cx="48"/>
  <circle id="svg_66" fill-opacity="0.7" fill="#720026" r="6.5" cy="21.99991" cx="107"/>
  <circle id="svg_69" fill-opacity="0.7" fill="#CE4257" r="6.5" cy="21.99991" cx="204"/>
  <circle id="svg_72" fill-opacity="0.7" fill="#FF7F51" r="6.5" cy="21.99991" cx="298"/>
  <circle id="svg_75" fill-opacity="0.7" fill="#FF9B54" r="6.5" cy="21.99991" cx="376"/>
  <circle id="svg_78" fill-opacity="0.7" fill="#FFB885" r="6.5" cy="21.99991" cx="502"/>
 </g>
</svg>