<?xml version="1.0" encoding="UTF-8" standalone="no"?>
<svg
   width="640"
   height="300"
   version="1.1"
   id="svg162"
   sodipodi:docname="chart-light-mode.svg"
   inkscape:version="1.1 (c4e8f9e, 2021-05-24)"
   xmlns:inkscape="http://www.inkscape.org/namespaces/inkscape"
   xmlns:sodipodi="http://sodipodi.sourceforge.net/DTD/sodipodi-0.dtd"
   xmlns="http://www.w3.org/2000/svg"
   xmlns:svg="http://www.w3.org/2000/svg">
  <defs
     id="defs166" />
  <sodipodi:namedview
     id="namedview164"
     pagecolor="#ffffff"
     bordercolor="#999999"
     borderopacity="1"
     inkscape:pageshadow="0"
     inkscape:pageopacity="0"
     inkscape:pagecheckerboard="0"
     showgrid="false"
     inkscape:snap-global="false"
     inkscape:zoom="1.2197209"
     inkscape:cx="414.02915"
     inkscape:cy="102.48246"
     inkscape:window-width="1280"
     inkscape:window-height="800"
     inkscape:window-x="0"
     inkscape:window-y="0"
     inkscape:window-maximized="0"
     inkscape:current-layer="svg162" />
  <path
     id="svg_12"
     fill-opacity="0"
     shape-rendering="crispEdges"
     fill="#000000"
     stroke="#dddddd"
     d="M 79.865779,56.535693 H 618.72611 M 79.865779,89.696329 H 618.72611 M 79.865779,122.85696 H 618.72611 M 79.865779,156.0176 H 618.72611 M 79.865779,189.17824 H 618.72611 M 79.865779,222.33887 H 618.72611 m -538.860331,0 H 618.72611"
     class="rgraph_background_grid"
     style="fill:#808080;stroke-width:0.921129;fill-opacity:1;stroke:#000000;stroke-opacity:0.29435483" />
  <g
     id="g6117">
    <text
       id="svg_80"
       dominant-baseline="bottom"
       text-anchor="start"
       font-style="normal"
       font-family="Arial, Verdana, sans-serif"
       font-weight="normal"
       font-size="12.2817px"
       y="37.19199"
       x="495.75543"
       fill="#ffffff"
       tag="key"
       style="fill:#000000;stroke-width:0.921129">Game Rewards</text>
    <text
       id="svg_77"
       dominant-baseline="bottom"
       text-anchor="start"
       font-style="normal"
       font-family="Arial, Verdana, sans-serif"
       font-weight="normal"
       font-size="12.2817px"
       y="37.19199"
       x="379.69321"
       fill="#ffffff"
       tag="key"
       style="fill:#000000;stroke-width:0.921129">Staking Rewards</text>
    <text
       id="svg_74"
       dominant-baseline="bottom"
       text-anchor="start"
       font-style="normal"
       font-family="Arial, Verdana, sans-serif"
       font-weight="normal"
       font-size="12.2817px"
       y="37.19199"
       x="307.84515"
       fill="#ffffff"
       tag="key"
       style="fill:#000000;stroke-width:0.921129">Treasury</text>
    <text
       id="svg_71"
       dominant-baseline="bottom"
       text-anchor="start"
       font-style="normal"
       font-family="Arial, Verdana, sans-serif"
       font-weight="normal"
       font-size="12.2817px"
       y="37.19199"
       x="221.25905"
       fill="#ffffff"
       tag="key"
       style="fill:#000000;stroke-width:0.921129">Public Sale</text>
    <text
       id="svg_68"
       dominant-baseline="bottom"
       text-anchor="start"
       font-style="normal"
       font-family="Arial, Verdana, sans-serif"
       font-weight="normal"
       font-size="12.2817px"
       y="37.19199"
       x="131.90956"
       fill="#ffffff"
       tag="key"
       style="fill:#000000;stroke-width:0.921129">Private Sale</text>
    <text
       id="svg_65"
       dominant-baseline="bottom"
       text-anchor="start"
       font-style="normal"
       font-family="Arial, Verdana, sans-serif"
       font-weight="normal"
       font-size="12.2817px"
       y="37.19199"
       x="77.562958"
       fill="#ffffff"
       tag="key"
       style="fill:#000000;stroke-width:0.921129">Team</text>
    <text
       id="svg_13"
       transform="rotate(-90)"
       dominant-baseline="middle"
       text-anchor="end"
       font-style="normal"
       font-family="Arial, Verdana, sans-serif"
       font-weight="normal"
       font-size="12.2817px"
       y="79.865692"
       x="-227.86572"
       fill="#ffffff"
       tag="labels.xaxis"
       style="fill:#000000;stroke-width:0.921129">2021 Q3</text>
    <text
       id="svg_14"
       transform="rotate(-90)"
       dominant-baseline="middle"
       text-anchor="end"
       font-style="normal"
       font-family="Arial, Verdana, sans-serif"
       font-weight="normal"
       font-size="12.2817px"
       y="108.22679"
       x="-227.86577"
       fill="#ffffff"
       tag="labels.xaxis"
       style="fill:#000000;stroke-width:0.921129">Q4</text>
    <text
       id="svg_15"
       transform="rotate(-90)"
       dominant-baseline="middle"
       text-anchor="end"
       font-style="normal"
       font-family="Arial, Verdana, sans-serif"
       font-weight="normal"
       font-size="12.2817px"
       y="136.58789"
       x="-227.86577"
       fill="#ffffff"
       tag="labels.xaxis"
       style="fill:#000000;stroke-width:0.921129">2022 Q1</text>
    <text
       id="svg_16"
       transform="rotate(-90)"
       dominant-baseline="middle"
       text-anchor="end"
       font-style="normal"
       font-family="Arial, Verdana, sans-serif"
       font-weight="normal"
       font-size="12.2817px"
       y="164.94943"
       x="-227.86626"
       fill="#ffffff"
       tag="labels.xaxis"
       style="fill:#000000;stroke-width:0.921129">Q2</text>
    <text
       id="svg_17"
       transform="rotate(-90)"
       dominant-baseline="middle"
       text-anchor="end"
       font-style="normal"
       font-family="Arial, Verdana, sans-serif"
       font-weight="normal"
       font-size="12.2817px"
       y="193.31007"
       x="-227.86583"
       fill="#ffffff"
       tag="labels.xaxis"
       style="fill:#000000;stroke-width:0.921129">Q3</text>
    <text
       id="svg_18"
       transform="rotate(-90)"
       dominant-baseline="middle"
       text-anchor="end"
       font-style="normal"
       font-family="Arial, Verdana, sans-serif"
       font-weight="normal"
       font-size="12.2817px"
       y="221.67163"
       x="-227.8663"
       fill="#ffffff"
       tag="labels.xaxis"
       style="fill:#000000;stroke-width:0.921129">Q4</text>
    <text
       id="svg_19"
       transform="rotate(-90)"
       dominant-baseline="middle"
       text-anchor="end"
       font-style="normal"
       font-family="Arial, Verdana, sans-serif"
       font-weight="normal"
       font-size="12.2817px"
       y="250.03226"
       x="-227.86588"
       fill="#ffffff"
       tag="labels.xaxis"
       style="fill:#000000;stroke-width:0.921129">2023 Q1</text>
    <text
       id="svg_20"
       transform="rotate(-90)"
       dominant-baseline="middle"
       text-anchor="end"
       font-style="normal"
       font-family="Arial, Verdana, sans-serif"
       font-weight="normal"
       font-size="12.2817px"
       y="278.39383"
       x="-227.86636"
       fill="#ffffff"
       tag="labels.xaxis"
       style="fill:#000000;stroke-width:0.921129">Q2</text>
    <text
       id="svg_21"
       transform="rotate(-90)"
       dominant-baseline="middle"
       text-anchor="end"
       font-style="normal"
       font-family="Arial, Verdana, sans-serif"
       font-weight="normal"
       font-size="12.2817px"
       y="306.75446"
       x="-227.86592"
       fill="#ffffff"
       tag="labels.xaxis"
       style="fill:#000000;stroke-width:0.921129">Q3</text>
    <text
       id="svg_22"
       transform="rotate(-90)"
       dominant-baseline="middle"
       text-anchor="end"
       font-style="normal"
       font-family="Arial, Verdana, sans-serif"
       font-weight="normal"
       font-size="12.2817px"
       y="335.116"
       x="-227.86641"
       fill="#ffffff"
       tag="labels.xaxis"
       style="fill:#000000;stroke-width:0.921129">Q4</text>
    <text
       id="svg_23"
       transform="rotate(-90)"
       dominant-baseline="middle"
       text-anchor="end"
       font-style="normal"
       font-family="Arial, Verdana, sans-serif"
       font-weight="normal"
       font-size="12.2817px"
       y="363.47662"
       x="-227.86595"
       fill="#ffffff"
       tag="labels.xaxis"
       style="fill:#000000;stroke-width:0.921129">2024 Q1</text>
    <text
       id="svg_24"
       transform="rotate(-90)"
       dominant-baseline="middle"
       text-anchor="end"
       font-style="normal"
       font-family="Arial, Verdana, sans-serif"
       font-weight="normal"
       font-size="12.2817px"
       y="391.8382"
       x="-227.86646"
       fill="#ffffff"
       tag="labels.xaxis"
       style="fill:#000000;stroke-width:0.921129">Q2</text>
    <text
       id="svg_25"
       transform="rotate(-90)"
       dominant-baseline="middle"
       text-anchor="end"
       font-style="normal"
       font-family="Arial, Verdana, sans-serif"
       font-weight="normal"
       font-size="12.2817px"
       y="420.19882"
       x="-227.86601"
       fill="#ffffff"
       tag="labels.xaxis"
       style="fill:#000000;stroke-width:0.921129">Q3</text>
    <text
       id="svg_26"
       transform="rotate(-90)"
       dominant-baseline="middle"
       text-anchor="end"
       font-style="normal"
       font-family="Arial, Verdana, sans-serif"
       font-weight="normal"
       font-size="12.2817px"
       y="448.56039"
       x="-227.86652"
       fill="#ffffff"
       tag="labels.xaxis"
       style="fill:#000000;stroke-width:0.921129">Q4</text>
    <text
       id="svg_27"
       transform="rotate(-90)"
       dominant-baseline="middle"
       text-anchor="end"
       font-style="normal"
       font-family="Arial, Verdana, sans-serif"
       font-weight="normal"
       font-size="12.2817px"
       y="476.92102"
       x="-227.86606"
       fill="#ffffff"
       tag="labels.xaxis"
       style="fill:#000000;stroke-width:0.921129">2025 Q1</text>
    <text
       id="svg_28"
       transform="rotate(-90)"
       dominant-baseline="middle"
       text-anchor="end"
       font-style="normal"
       font-family="Arial, Verdana, sans-serif"
       font-weight="normal"
       font-size="12.2817px"
       y="505.28165"
       x="-227.86563"
       fill="#ffffff"
       tag="labels.xaxis"
       style="fill:#000000;stroke-width:0.921129">Q2</text>
    <text
       id="svg_29"
       transform="rotate(-90)"
       dominant-baseline="middle"
       text-anchor="end"
       font-style="normal"
       font-family="Arial, Verdana, sans-serif"
       font-weight="normal"
       font-size="12.2817px"
       y="533.64319"
       x="-227.8661"
       fill="#ffffff"
       tag="labels.xaxis"
       style="fill:#000000;stroke-width:0.921129">Q3</text>
    <text
       id="svg_30"
       transform="rotate(-90)"
       dominant-baseline="middle"
       text-anchor="end"
       font-style="normal"
       font-family="Arial, Verdana, sans-serif"
       font-weight="normal"
       font-size="12.2817px"
       y="562.00385"
       x="-227.86565"
       fill="#ffffff"
       tag="labels.xaxis"
       style="fill:#000000;stroke-width:0.921129">Q4</text>
    <text
       id="svg_31"
       transform="rotate(-90)"
       dominant-baseline="middle"
       text-anchor="end"
       font-style="normal"
       font-family="Arial, Verdana, sans-serif"
       font-weight="normal"
       font-size="12.2817px"
       y="590.36542"
       x="-227.86618"
       fill="#ffffff"
       tag="labels.xaxis"
       style="fill:#000000;stroke-width:0.921129">2026 Q1</text>
    <text
       id="svg_32"
       transform="rotate(-90)"
       dominant-baseline="middle"
       text-anchor="end"
       font-style="normal"
       font-family="Arial, Verdana, sans-serif"
       font-weight="normal"
       font-size="12.2817px"
       y="618.72601"
       x="-227.86572"
       fill="#ffffff"
       tag="labels.xaxis"
       style="fill:#000000;stroke-width:0.921129">Q2</text>
    <text
       id="svg_33"
       dominant-baseline="middle"
       text-anchor="end"
       font-style="normal"
       font-family="Arial, Verdana, sans-serif"
       font-weight="normal"
       font-size="12.2817px"
       y="189.17824"
       x="73.417877"
       fill="#ffffff"
       tag="labels.yaxis"
       style="fill:#000000;stroke-width:0.921129">2m</text>
    <text
       id="svg_34"
       dominant-baseline="middle"
       text-anchor="end"
       font-style="normal"
       font-family="Arial, Verdana, sans-serif"
       font-weight="normal"
       font-size="12.2817px"
       y="156.01759"
       x="73.417877"
       fill="#ffffff"
       tag="labels.yaxis"
       style="fill:#000000;stroke-width:0.921129">4m</text>
    <text
       id="svg_35"
       dominant-baseline="middle"
       text-anchor="end"
       font-style="normal"
       font-family="Arial, Verdana, sans-serif"
       font-weight="normal"
       font-size="12.2817px"
       y="122.85696"
       x="73.417877"
       fill="#ffffff"
       tag="labels.yaxis"
       style="fill:#000000;stroke-width:0.921129">6m</text>
    <text
       id="svg_36"
       dominant-baseline="middle"
       text-anchor="end"
       font-style="normal"
       font-family="Arial, Verdana, sans-serif"
       font-weight="normal"
       font-size="12.2817px"
       y="89.696327"
       x="73.417877"
       fill="#ffffff"
       tag="labels.yaxis"
       style="fill:#000000;stroke-width:0.921129">8m</text>
    <text
       id="svg_37"
       dominant-baseline="middle"
       text-anchor="end"
       font-style="normal"
       font-family="Arial, Verdana, sans-serif"
       font-weight="normal"
       font-size="12.2817px"
       y="56.53569"
       x="73.417877"
       fill="#ffffff"
       tag="labels.yaxis"
       style="fill:#000000;stroke-width:0.921129">10m</text>
    <text
       id="svg_38"
       dominant-baseline="middle"
       text-anchor="end"
       font-style="normal"
       font-family="Arial, Verdana, sans-serif"
       font-weight="normal"
       font-size="12.2817px"
       y="222.33887"
       x="73.417877"
       fill="#ffffff"
       tag="labels.yaxis"
       style="fill:#000000;stroke-width:0.921129">$SPR 0</text>
  </g>
  <g
     id="svg_1"
     class="background1"
     transform="matrix(0.92112877,0,0,0.92112877,22.755795,11.861031)" />
  <g
     id="svg_2"
     class="background2"
     transform="matrix(0.92112877,0,0,0.92112877,22.755795,11.861031)" />
  <g
     id="svg_3"
     class="background3"
     transform="matrix(0.92112877,0,0,0.92112877,22.755795,11.861031)" />
  <g
     id="svg_4"
     class="background4"
     transform="matrix(0.92112877,0,0,0.92112877,22.755795,11.861031)" />
  <g
     id="svg_5"
     class="background5"
     transform="matrix(0.92112877,0,0,0.92112877,22.755795,11.861031)" />
  <g
     id="svg_6"
     class="background6"
     transform="matrix(0.92112877,0,0,0.92112877,22.755795,11.861031)" />
  <g
     id="svg_7"
     class="background7"
     transform="matrix(0.92112877,0,0,0.92112877,22.755795,11.861031)" />
  <g
     id="svg_8"
     class="background8"
     transform="matrix(0.92112877,0,0,0.92112877,22.755795,11.861031)" />
  <g
     id="svg_9"
     class="background9"
     transform="matrix(0.92112877,0,0,0.92112877,22.755795,11.861031)" />
  <g
     id="svg_10"
     class="background10"
     transform="matrix(0.92112877,0,0,0.92112877,22.755795,11.861031)" />
  <path
     id="svg_61"
     stroke-opacity="0.7"
     stroke-linejoin="round"
     stroke-linecap="round"
     stroke-width="0.0921129px"
     stroke-dasharray="1, 0"
     fill="none"
     stroke="#ffb885"
     d="m 79.865779,222.33887 h 9.133222 9.133231 l 9.133218,-24.87047 h 9.13324 9.13322 l 9.13323,-19.89639 h 9.13322 9.13322 l 9.13323,-13.26425 9.13323,-58.03111 9.13323,-0.92187 9.13322,-0.92186 9.13323,-1.37949 9.13322,-1.3828 9.13322,-1.38279 9.13324,-1.382802 9.13322,-1.376167 9.13323,-1.382798 9.13322,-1.382799 9.13322,-1.382798 9.13323,-1.382799 9.13323,-1.379482 9.13323,-1.382799 9.13322,-1.382798 9.13323,-1.382799 9.13322,-1.376166 9.13323,-1.382799 9.13323,-1.382798 9.13322,-1.382799 9.13323,-1.382798 9.13322,-1.379483 9.13323,-1.382798 9.13322,-1.382799 9.13323,-1.382798 9.13323,-1.376166 9.13322,-1.382799 9.13323,-1.382798 9.13322,-1.382799 9.13323,-1.382799 9.13323,-1.379482 9.13322,-1.382798 9.13323,-1.382799 9.13322,-1.382798 9.13323,-1.376167 9.13323,-1.382798 9.13322,-1.382799 9.13323,-0.460933 9.13322,-0.460933 h 9.13323 9.13322 9.13324 9.13322 9.13322 9.13323 9.13322 9.13323 9.13323 9.13323 9.13322 v 16.580318 h -9.13322 -9.13323 -9.13323 -9.13323 -9.13322 -9.13323 -9.13322 -9.13322 -9.13324 -9.13322 -9.13323 -9.13322 -9.13323 l -9.13322,0.921866 -9.13323,0.921866 -9.13323,0.918549 -9.13322,0.921866 -9.13323,0.921866 -9.13322,0.921865 -9.13323,0.91855 -9.13323,0.921866 -9.13322,0.921865 -9.13323,0.921866 -9.13322,0.921866 -9.13323,0.918549 -9.13323,0.921866 -9.13322,0.921866 -9.13323,0.921865 -9.13322,0.91855 -9.13323,0.921865 -9.13322,0.921866 -9.13323,0.921866 -9.13323,0.921866 -9.13322,0.918549 -9.13323,0.921866 -9.13322,0.921865 -9.13323,0.921866 -9.13323,0.91855 -9.13323,0.921865 -9.13322,0.921866 -9.13322,0.921866 -9.13323,0.921865 -9.13322,0.918551 -9.13324,0.92186 -9.13322,0.92187 -9.13322,0.92187 -9.13323,0.91855 -9.13322,0.92186 -9.13323,0.92187 -9.13323,58.03111 -9.13323,13.26425 h -9.13322 -9.13322 l -9.13323,19.89639 h -9.13322 -9.13324 l -9.133218,24.87047 h -9.133231 -9.133222" />
  <g
     id="g2828">
    <g
       id="g2803">
      <g
         id="svg_39"
         class="rgraph_filled_line_0"
         transform="matrix(0.92112877,0,0,0.92112877,22.755795,11.861031)">
        <path
           id="svg_40"
           stroke-opacity="0"
           fill-opacity="0.7"
           fill="#4f000b"
           stroke="#000000"
           d="m 62,228.49991 h 9.91525 9.91526 l 9.91525,-27 h 9.91526 9.91525 9.91526 9.91525 9.91525 9.91526 9.91525 9.91526 9.91525 9.91526 9.91525 9.91525 9.91526 9.91525 9.91526 9.91525 9.91525 9.91526 9.91525 9.91526 9.91525 9.91526 9.91525 9.91525 9.91526 9.91525 9.91526 9.91525 9.91526 9.91525 9.91525 9.91526 9.91525 9.91526 9.91525 9.91526 9.91525 9.91525 9.91526 9.91525 9.91526 9.91525 9.91525 9.91526 9.91525 9.91526 9.91525 9.91526 9.91525 9.91525 9.91526 9.91525 9.91526 9.91525 9.91526 H 647 v 28.11536 L 62,229.49991 v -1 0"
           sodipodi:nodetypes="cccccccccccccccccccccccccccccccccccccccccccccccccccccccccccccccc" />
        <path
           id="svg_41"
           stroke-opacity="0.7"
           stroke-linejoin="round"
           stroke-linecap="round"
           stroke-width="0.1px"
           stroke-dasharray="1, 0"
           fill="none"
           stroke="#4f000b"
           d="m 62,228.49991 h 9.91525 9.91526 l 9.91525,-27 h 9.91526 9.91525 9.91526 9.91525 9.91525 9.91526 9.91525 9.91526 9.91525 9.91526 9.91525 9.91525 9.91526 9.91525 9.91526 9.91525 9.91525 9.91526 9.91525 9.91526 9.91525 9.91526 9.91525 9.91525 9.91526 9.91525 9.91526 9.91525 9.91526 9.91525 9.91525 9.91526 9.91525 9.91526 9.91525 9.91526 9.91525 9.91525 9.91526 9.91525 9.91526 9.91525 9.91525 9.91526 9.91525 9.91526 9.91525 9.91526 9.91525 9.91525 9.91526 9.91525 9.91526 9.91525 9.91526 H 647" />
        <path
           id="svg_42"
           stroke-opacity="0.7"
           stroke-linejoin="round"
           stroke-linecap="round"
           stroke-width="1.01px"
           stroke-dasharray="1, 0"
           fill="none"
           stroke="#4f000b"
           d="m 62,228.49991 h 9.91525 9.91526 l 9.91525,-27 h 9.91526 9.91525 9.91526 9.91525 9.91525 9.91526 9.91525 9.91526 9.91525 9.91526 9.91525 9.91525 9.91526 9.91525 9.91526 9.91525 9.91525 9.91526 9.91525 9.91526 9.91525 9.91526 9.91525 9.91525 9.91526 9.91525 9.91526 9.91525 9.91526 9.91525 9.91525 9.91526 9.91525 9.91526 9.91525 9.91526 9.91525 9.91525 9.91526 9.91525 9.91526 9.91525 9.91525 9.91526 9.91525 9.91526 9.91525 9.91526 9.91525 9.91525 9.91526 9.91525 9.91526 9.91525 9.91526 H 647" />
      </g>
      <g
         id="svg_43"
         class="rgraph_filled_line_1"
         transform="matrix(0.92112877,0,0,0.92112877,22.755795,11.861031)">
        <path
           id="svg_44"
           stroke-opacity="0"
           fill-opacity="0.7"
           fill="#720026"
           stroke="#000000"
           d="m 62,228.49991 h 9.91525 9.91526 l 9.91525,-27 h 9.91526 9.91525 l 9.91526,-21.6 h 9.91525 9.91525 9.91526 9.91525 9.91526 9.91525 9.91526 9.91525 9.91525 9.91526 9.91525 9.91526 9.91525 9.91525 9.91526 9.91525 9.91526 9.91525 9.91526 9.91525 9.91525 9.91526 9.91525 9.91526 9.91525 9.91526 9.91525 9.91525 9.91526 9.91525 9.91526 9.91525 9.91526 9.91525 9.91525 9.91526 9.91525 9.91526 9.91525 9.91525 9.91526 9.91525 9.91526 9.91525 9.91526 9.91525 9.91525 9.91526 9.91525 9.91526 9.91525 9.91526 H 647 v 21.6 h -9.91525 -9.91526 -9.91525 -9.91526 -9.91525 -9.91526 -9.91525 -9.91525 -9.91526 -9.91525 -9.91526 -9.91525 -9.91526 -9.91525 -9.91525 -9.91526 -9.91525 -9.91526 -9.91525 -9.91525 -9.91526 -9.91525 -9.91526 -9.91525 -9.91526 -9.91525 -9.91525 -9.91526 -9.91525 -9.91526 -9.91525 -9.91526 -9.91525 -9.91525 -9.91526 -9.91525 -9.91526 -9.91525 -9.91526 -9.91525 -9.91525 -9.91526 -9.91525 -9.91526 -9.91525 -9.91525 -9.91526 -9.91525 -9.91526 -9.91525 -9.91526 -9.91525 -9.91525 -9.91526 -9.91525 -9.91526 l -9.91525,27 H 71.91525 62 v 0 0"
           sodipodi:nodetypes="cccccccccccccccccccccccccccccccccccccccccccccccccccccccccccccccccccccccccccccccccccccccccccccccccccccccccccccccccccccccccc" />
        <path
           id="svg_45"
           stroke-opacity="0.7"
           stroke-linejoin="round"
           stroke-linecap="round"
           stroke-width="0.1px"
           stroke-dasharray="1, 0"
           fill="none"
           stroke="#720026"
           d="m 62,228.49991 h 9.91525 9.91526 l 9.91525,-27 h 9.91526 9.91525 l 9.91526,-21.6 h 9.91525 9.91525 9.91526 9.91525 9.91526 9.91525 9.91526 9.91525 9.91525 9.91526 9.91525 9.91526 9.91525 9.91525 9.91526 9.91525 9.91526 9.91525 9.91526 9.91525 9.91525 9.91526 9.91525 9.91526 9.91525 9.91526 9.91525 9.91525 9.91526 9.91525 9.91526 9.91525 9.91526 9.91525 9.91525 9.91526 9.91525 9.91526 9.91525 9.91525 9.91526 9.91525 9.91526 9.91525 9.91526 9.91525 9.91525 9.91526 9.91525 9.91526 9.91525 9.91526 H 647 v 21.6 h -9.91525 -9.91526 -9.91525 -9.91526 -9.91525 -9.91526 -9.91525 -9.91525 -9.91526 -9.91525 -9.91526 -9.91525 -9.91526 -9.91525 -9.91525 -9.91526 -9.91525 -9.91526 -9.91525 -9.91525 -9.91526 -9.91525 -9.91526 -9.91525 -9.91526 -9.91525 -9.91525 -9.91526 -9.91525 -9.91526 -9.91525 -9.91526 -9.91525 -9.91525 -9.91526 -9.91525 -9.91526 -9.91525 -9.91526 -9.91525 -9.91525 -9.91526 -9.91525 -9.91526 -9.91525 -9.91525 -9.91526 -9.91525 -9.91526 -9.91525 -9.91526 -9.91525 -9.91525 -9.91526 -9.91525 -9.91526 l -9.91525,27 H 71.91525 62" />
        <path
           id="svg_46"
           stroke-opacity="0.7"
           stroke-linejoin="round"
           stroke-linecap="round"
           stroke-width="1.01px"
           stroke-dasharray="1, 0"
           fill="none"
           stroke="#720026"
           d="m 62,228.49991 h 9.91525 9.91526 l 9.91525,-27 h 9.91526 9.91525 l 9.91526,-21.6 h 9.91525 9.91525 9.91526 9.91525 9.91526 9.91525 9.91526 9.91525 9.91525 9.91526 9.91525 9.91526 9.91525 9.91525 9.91526 9.91525 9.91526 9.91525 9.91526 9.91525 9.91525 9.91526 9.91525 9.91526 9.91525 9.91526 9.91525 9.91525 9.91526 9.91525 9.91526 9.91525 9.91526 9.91525 9.91525 9.91526 9.91525 9.91526 9.91525 9.91525 9.91526 9.91525 9.91526 9.91525 9.91526 9.91525 9.91525 9.91526 9.91525 9.91526 9.91525 9.91526 H 647" />
      </g>
      <g
         id="svg_47"
         class="rgraph_filled_line_2"
         transform="matrix(0.92112877,0,0,0.92112877,22.755795,11.861031)">
        <path
           id="svg_48"
           stroke-opacity="0"
           fill-opacity="0.7"
           fill="#ce4257"
           stroke="#000000"
           d="m 62,228.49991 h 9.91525 9.91526 l 9.91525,-27 h 9.91526 9.91525 l 9.91526,-21.6 h 9.91525 9.91525 l 9.91526,-14.4 h 9.91525 9.91526 9.91525 9.91526 9.91525 9.91525 9.91526 9.91525 9.91526 9.91525 9.91525 9.91526 9.91525 9.91526 9.91525 9.91526 9.91525 9.91525 9.91526 9.91525 9.91526 9.91525 9.91526 9.91525 9.91525 9.91526 9.91525 9.91526 9.91525 9.91526 9.91525 9.91525 9.91526 9.91525 9.91526 9.91525 9.91525 9.91526 9.91525 9.91526 9.91525 9.91526 9.91525 9.91525 9.91526 9.91525 9.91526 9.91525 9.91526 H 647 v 14.4 h -9.91525 -9.91526 -9.91525 -9.91526 -9.91525 -9.91526 -9.91525 -9.91525 -9.91526 -9.91525 -9.91526 -9.91525 -9.91526 -9.91525 -9.91525 -9.91526 -9.91525 -9.91526 -9.91525 -9.91525 -9.91526 -9.91525 -9.91526 -9.91525 -9.91526 -9.91525 -9.91525 -9.91526 -9.91525 -9.91526 -9.91525 -9.91526 -9.91525 -9.91525 -9.91526 -9.91525 -9.91526 -9.91525 -9.91526 -9.91525 -9.91525 -9.91526 -9.91525 -9.91526 -9.91525 -9.91525 -9.91526 -9.91525 -9.91526 -9.91525 -9.91526 -9.91525 -9.91525 l -9.91526,21.6 h -9.91525 -9.91526 l -9.91525,27 H 71.91525 62 v 0 0"
           sodipodi:nodetypes="cccccccccccccccccccccccccccccccccccccccccccccccccccccccccccccccccccccccccccccccccccccccccccccccccccccccccccccccccccccccccc" />
        <path
           id="svg_49"
           stroke-opacity="0.7"
           stroke-linejoin="round"
           stroke-linecap="round"
           stroke-width="0.1px"
           stroke-dasharray="1, 0"
           fill="none"
           stroke="#ce4257"
           d="m 62,228.49991 h 9.91525 9.91526 l 9.91525,-27 h 9.91526 9.91525 l 9.91526,-21.6 h 9.91525 9.91525 l 9.91526,-14.4 h 9.91525 9.91526 9.91525 9.91526 9.91525 9.91525 9.91526 9.91525 9.91526 9.91525 9.91525 9.91526 9.91525 9.91526 9.91525 9.91526 9.91525 9.91525 9.91526 9.91525 9.91526 9.91525 9.91526 9.91525 9.91525 9.91526 9.91525 9.91526 9.91525 9.91526 9.91525 9.91525 9.91526 9.91525 9.91526 9.91525 9.91525 9.91526 9.91525 9.91526 9.91525 9.91526 9.91525 9.91525 9.91526 9.91525 9.91526 9.91525 9.91526 H 647 v 14.4 h -9.91525 -9.91526 -9.91525 -9.91526 -9.91525 -9.91526 -9.91525 -9.91525 -9.91526 -9.91525 -9.91526 -9.91525 -9.91526 -9.91525 -9.91525 -9.91526 -9.91525 -9.91526 -9.91525 -9.91525 -9.91526 -9.91525 -9.91526 -9.91525 -9.91526 -9.91525 -9.91525 -9.91526 -9.91525 -9.91526 -9.91525 -9.91526 -9.91525 -9.91525 -9.91526 -9.91525 -9.91526 -9.91525 -9.91526 -9.91525 -9.91525 -9.91526 -9.91525 -9.91526 -9.91525 -9.91525 -9.91526 -9.91525 -9.91526 -9.91525 -9.91526 -9.91525 -9.91525 l -9.91526,21.6 h -9.91525 -9.91526 l -9.91525,27 H 71.91525 62" />
        <path
           id="svg_50"
           stroke-opacity="0.7"
           stroke-linejoin="round"
           stroke-linecap="round"
           stroke-width="1.01px"
           stroke-dasharray="1, 0"
           fill="none"
           stroke="#ce4257"
           d="m 62,228.49991 h 9.91525 9.91526 l 9.91525,-27 h 9.91526 9.91525 l 9.91526,-21.6 h 9.91525 9.91525 l 9.91526,-14.4 h 9.91525 9.91526 9.91525 9.91526 9.91525 9.91525 9.91526 9.91525 9.91526 9.91525 9.91525 9.91526 9.91525 9.91526 9.91525 9.91526 9.91525 9.91525 9.91526 9.91525 9.91526 9.91525 9.91526 9.91525 9.91525 9.91526 9.91525 9.91526 9.91525 9.91526 9.91525 9.91525 9.91526 9.91525 9.91526 9.91525 9.91525 9.91526 9.91525 9.91526 9.91525 9.91526 9.91525 9.91525 9.91526 9.91525 9.91526 9.91525 9.91526 H 647" />
      </g>
      <g
         id="svg_51"
         class="rgraph_filled_line_3"
         transform="matrix(0.92112877,0,0,0.92112877,22.755795,11.861031)">
        <path
           id="svg_52"
           stroke-opacity="0"
           fill-opacity="0.7"
           fill="#ff7f51"
           stroke="#000000"
           d="m 62,228.49991 h 9.91525 9.91526 l 9.91525,-27 h 9.91526 9.91525 l 9.91526,-21.6 h 9.91525 9.91525 l 9.91526,-14.4 9.91525,-63 h 9.91526 9.91525 9.91526 9.91525 9.91525 9.91526 9.91525 9.91526 9.91525 9.91525 9.91526 9.91525 9.91526 9.91525 9.91526 9.91525 9.91525 9.91526 9.91525 9.91526 9.91525 9.91526 9.91525 9.91525 9.91526 9.91525 9.91526 9.91525 9.91526 9.91525 9.91525 9.91526 9.91525 9.91526 9.91525 9.91525 9.91526 9.91525 9.91526 9.91525 9.91526 9.91525 9.91525 9.91526 9.91525 9.91526 9.91525 9.91526 H 647 v 63 h -9.91525 -9.91526 -9.91525 -9.91526 -9.91525 -9.91526 -9.91525 -9.91525 -9.91526 -9.91525 -9.91526 -9.91525 -9.91526 -9.91525 -9.91525 -9.91526 -9.91525 -9.91526 -9.91525 -9.91525 -9.91526 -9.91525 -9.91526 -9.91525 -9.91526 -9.91525 -9.91525 -9.91526 -9.91525 -9.91526 -9.91525 -9.91526 -9.91525 -9.91525 -9.91526 -9.91525 -9.91526 -9.91525 -9.91526 -9.91525 -9.91525 -9.91526 -9.91525 -9.91526 -9.91525 -9.91525 -9.91526 -9.91525 -9.91526 -9.91525 l -9.91526,14.4 h -9.91525 -9.91525 l -9.91526,21.6 h -9.91525 -9.91526 l -9.91525,27 H 71.91525 62 v 0 0"
           sodipodi:nodetypes="cccccccccccccccccccccccccccccccccccccccccccccccccccccccccccccccccccccccccccccccccccccccccccccccccccccccccccccccccccccccccc" />
        <path
           id="svg_53"
           stroke-opacity="0.7"
           stroke-linejoin="round"
           stroke-linecap="round"
           stroke-width="0.1px"
           stroke-dasharray="1, 0"
           fill="none"
           stroke="#ff7f51"
           d="m 62,228.49991 h 9.91525 9.91526 l 9.91525,-27 h 9.91526 9.91525 l 9.91526,-21.6 h 9.91525 9.91525 l 9.91526,-14.4 9.91525,-63 h 9.91526 9.91525 9.91526 9.91525 9.91525 9.91526 9.91525 9.91526 9.91525 9.91525 9.91526 9.91525 9.91526 9.91525 9.91526 9.91525 9.91525 9.91526 9.91525 9.91526 9.91525 9.91526 9.91525 9.91525 9.91526 9.91525 9.91526 9.91525 9.91526 9.91525 9.91525 9.91526 9.91525 9.91526 9.91525 9.91525 9.91526 9.91525 9.91526 9.91525 9.91526 9.91525 9.91525 9.91526 9.91525 9.91526 9.91525 9.91526 H 647 v 63 h -9.91525 -9.91526 -9.91525 -9.91526 -9.91525 -9.91526 -9.91525 -9.91525 -9.91526 -9.91525 -9.91526 -9.91525 -9.91526 -9.91525 -9.91525 -9.91526 -9.91525 -9.91526 -9.91525 -9.91525 -9.91526 -9.91525 -9.91526 -9.91525 -9.91526 -9.91525 -9.91525 -9.91526 -9.91525 -9.91526 -9.91525 -9.91526 -9.91525 -9.91525 -9.91526 -9.91525 -9.91526 -9.91525 -9.91526 -9.91525 -9.91525 -9.91526 -9.91525 -9.91526 -9.91525 -9.91525 -9.91526 -9.91525 -9.91526 -9.91525 l -9.91526,14.4 h -9.91525 -9.91525 l -9.91526,21.6 h -9.91525 -9.91526 l -9.91525,27 H 71.91525 62" />
        <path
           id="svg_54"
           stroke-opacity="0.7"
           stroke-linejoin="round"
           stroke-linecap="round"
           stroke-width="1.01px"
           stroke-dasharray="1, 0"
           fill="none"
           stroke="#ff7f51"
           d="m 62,228.49991 h 9.91525 9.91526 l 9.91525,-27 h 9.91526 9.91525 l 9.91526,-21.6 h 9.91525 9.91525 l 9.91526,-14.4 9.91525,-63 h 9.91526 9.91525 9.91526 9.91525 9.91525 9.91526 9.91525 9.91526 9.91525 9.91525 9.91526 9.91525 9.91526 9.91525 9.91526 9.91525 9.91525 9.91526 9.91525 9.91526 9.91525 9.91526 9.91525 9.91525 9.91526 9.91525 9.91526 9.91525 9.91526 9.91525 9.91525 9.91526 9.91525 9.91526 9.91525 9.91525 9.91526 9.91525 9.91526 9.91525 9.91526 9.91525 9.91525 9.91526 9.91525 9.91526 9.91525 9.91526 H 647" />
      </g>
      <g
         id="svg_55"
         class="rgraph_filled_line_4"
         transform="matrix(0.92112877,0,0,0.92112877,22.755795,11.861031)">
        <path
           id="svg_56"
           stroke-opacity="0"
           fill-opacity="0.7"
           fill="#ff9b54"
           stroke="#000000"
           d="m 62,228.49991 h 9.91525 9.91526 l 9.91525,-27 h 9.91526 9.91525 l 9.91526,-21.6 h 9.91525 9.91525 l 9.91526,-14.4 9.91525,-63 9.91526,-1.0008 9.91525,-1.0008 9.91526,-0.9972 9.91525,-1.0008 9.91525,-1.0008 9.91526,-1.0008 9.91525,-0.9972 9.91526,-1.0008 9.91525,-1.0008 9.91525,-1.0008 9.91526,-1.0008 9.91525,-0.9972 9.91526,-1.0008 9.91525,-1.0008 9.91526,-1.0008 9.91525,-0.9972 9.91525,-1.0008 9.91526,-1.0008 9.91525,-1.0008 9.91526,-1.0008 9.91525,-0.9972 9.91526,-1.0008 9.91525,-1.0008 9.91525,-1.0008 9.91526,-0.9972 9.91525,-1.0008 9.91526,-1.0008 9.91525,-1.0008 9.91526,-1.0008 9.91525,-0.9972 9.91525,-1.0008 9.91526,-1.0008 9.91525,-1.0008 9.91526,-0.9972 9.91525,-1.0008 9.91525,-1.0008 h 9.91526 9.91525 9.91526 9.91525 9.91526 9.91525 9.91525 9.91526 9.91525 9.91526 9.91525 9.91526 H 647 v 36 h -9.91525 -9.91526 -9.91525 -9.91526 -9.91525 -9.91526 -9.91525 -9.91525 -9.91526 -9.91525 -9.91526 -9.91525 -9.91526 -9.91525 -9.91525 -9.91526 -9.91525 -9.91526 -9.91525 -9.91525 -9.91526 -9.91525 -9.91526 -9.91525 -9.91526 -9.91525 -9.91525 -9.91526 -9.91525 -9.91526 -9.91525 -9.91526 -9.91525 -9.91525 -9.91526 -9.91525 -9.91526 -9.91525 -9.91526 -9.91525 -9.91525 -9.91526 -9.91525 -9.91526 -9.91525 -9.91525 -9.91526 -9.91525 -9.91526 l -9.91525,63 -9.91526,14.4 h -9.91525 -9.91525 l -9.91526,21.6 h -9.91525 -9.91526 l -9.91525,27 H 71.91525 62 v 0 0"
           sodipodi:nodetypes="cccccccccccccccccccccccccccccccccccccccccccccccccccccccccccccccccccccccccccccccccccccccccccccccccccccccccccccccccccccccccc" />
        <path
           id="svg_57"
           stroke-opacity="0.7"
           stroke-linejoin="round"
           stroke-linecap="round"
           stroke-width="0.1px"
           stroke-dasharray="1, 0"
           fill="none"
           stroke="#ff9b54"
           d="m 62,228.49991 h 9.91525 9.91526 l 9.91525,-27 h 9.91526 9.91525 l 9.91526,-21.6 h 9.91525 9.91525 l 9.91526,-14.4 9.91525,-63 9.91526,-1.0008 9.91525,-1.0008 9.91526,-0.9972 9.91525,-1.0008 9.91525,-1.0008 9.91526,-1.0008 9.91525,-0.9972 9.91526,-1.0008 9.91525,-1.0008 9.91525,-1.0008 9.91526,-1.0008 9.91525,-0.9972 9.91526,-1.0008 9.91525,-1.0008 9.91526,-1.0008 9.91525,-0.9972 9.91525,-1.0008 9.91526,-1.0008 9.91525,-1.0008 9.91526,-1.0008 9.91525,-0.9972 9.91526,-1.0008 9.91525,-1.0008 9.91525,-1.0008 9.91526,-0.9972 9.91525,-1.0008 9.91526,-1.0008 9.91525,-1.0008 9.91526,-1.0008 9.91525,-0.9972 9.91525,-1.0008 9.91526,-1.0008 9.91525,-1.0008 9.91526,-0.9972 9.91525,-1.0008 9.91525,-1.0008 h 9.91526 9.91525 9.91526 9.91525 9.91526 9.91525 9.91525 9.91526 9.91525 9.91526 9.91525 9.91526 H 647 v 36 h -9.91525 -9.91526 -9.91525 -9.91526 -9.91525 -9.91526 -9.91525 -9.91525 -9.91526 -9.91525 -9.91526 -9.91525 -9.91526 -9.91525 -9.91525 -9.91526 -9.91525 -9.91526 -9.91525 -9.91525 -9.91526 -9.91525 -9.91526 -9.91525 -9.91526 -9.91525 -9.91525 -9.91526 -9.91525 -9.91526 -9.91525 -9.91526 -9.91525 -9.91525 -9.91526 -9.91525 -9.91526 -9.91525 -9.91526 -9.91525 -9.91525 -9.91526 -9.91525 -9.91526 -9.91525 -9.91525 -9.91526 -9.91525 -9.91526 l -9.91525,63 -9.91526,14.4 h -9.91525 -9.91525 l -9.91526,21.6 h -9.91525 -9.91526 l -9.91525,27 H 71.91525 62" />
        <path
           id="svg_58"
           stroke-opacity="0.7"
           stroke-linejoin="round"
           stroke-linecap="round"
           stroke-width="1.01px"
           stroke-dasharray="1, 0"
           fill="none"
           stroke="#ff9b54"
           d="m 62,228.49991 h 9.91525 9.91526 l 9.91525,-27 h 9.91526 9.91525 l 9.91526,-21.6 h 9.91525 9.91525 l 9.91526,-14.4 9.91525,-63 9.91526,-1.0008 9.91525,-1.0008 9.91526,-0.9972 9.91525,-1.0008 9.91525,-1.0008 9.91526,-1.0008 9.91525,-0.9972 9.91526,-1.0008 9.91525,-1.0008 9.91525,-1.0008 9.91526,-1.0008 9.91525,-0.9972 9.91526,-1.0008 9.91525,-1.0008 9.91526,-1.0008 9.91525,-0.9972 9.91525,-1.0008 9.91526,-1.0008 9.91525,-1.0008 9.91526,-1.0008 9.91525,-0.9972 9.91526,-1.0008 9.91525,-1.0008 9.91525,-1.0008 9.91526,-0.9972 9.91525,-1.0008 9.91526,-1.0008 9.91525,-1.0008 9.91526,-1.0008 9.91525,-0.9972 9.91525,-1.0008 9.91526,-1.0008 9.91525,-1.0008 9.91526,-0.9972 9.91525,-1.0008 9.91525,-1.0008 h 9.91526 9.91525 9.91526 9.91525 9.91526 9.91525 9.91525 9.91526 9.91525 9.91526 9.91525 9.91526 H 647" />
      </g>
      <path
         id="svg_60"
         stroke-opacity="0"
         fill-opacity="0.7"
         fill="#ffb885"
         stroke="#000000"
         d="m 79.865779,222.33887 h 9.133222 9.133231 l 9.133218,-24.87047 h 9.13324 9.13322 l 9.13323,-19.89639 h 9.13322 9.13322 l 9.13323,-13.26425 9.13323,-58.03111 9.13323,-0.92187 9.13322,-0.92186 9.13323,-1.37949 9.13322,-1.3828 9.13322,-1.38279 9.13324,-1.382802 9.13322,-1.376167 9.13323,-1.382798 9.13322,-1.382799 9.13322,-1.382798 9.13323,-1.382799 9.13323,-1.379482 9.13323,-1.382799 9.13322,-1.382798 9.13323,-1.382799 9.13322,-1.376166 9.13323,-1.382799 9.13323,-1.382798 9.13322,-1.382799 9.13323,-1.382798 9.13322,-1.379483 9.13323,-1.382798 9.13322,-1.382799 9.13323,-1.382798 9.13323,-1.376166 9.13322,-1.382799 9.13323,-1.382798 9.13322,-1.382799 9.13323,-1.382799 9.13323,-1.379482 9.13322,-1.382798 9.13323,-1.382799 9.13322,-1.382798 9.13323,-1.376167 9.13323,-1.382798 9.13322,-1.382799 9.13323,-0.460933 9.13322,-0.460933 h 9.13323 9.13322 9.13324 9.13322 9.13322 9.13323 9.13322 9.13323 9.13323 9.13323 9.13322 v 16.580318 h -9.13322 -9.13323 -9.13323 -9.13323 -9.13322 -9.13323 -9.13322 -9.13322 -9.13324 -9.13322 -9.13323 -9.13322 -9.13323 l -9.13322,0.921866 -9.13323,0.921866 -9.13323,0.918549 -9.13322,0.921866 -9.13323,0.921866 -9.13322,0.921865 -9.13323,0.91855 -9.13323,0.921866 -9.13322,0.921865 -9.13323,0.921866 -9.13322,0.921866 -9.13323,0.918549 -9.13323,0.921866 -9.13322,0.921866 -9.13323,0.921865 -9.13322,0.91855 -9.13323,0.921865 -9.13322,0.921866 -9.13323,0.921866 -9.13323,0.921866 -9.13322,0.918549 -9.13323,0.921866 -9.13322,0.921865 -9.13323,0.921866 -9.13323,0.91855 -9.13323,0.921865 -9.13322,0.921866 -9.13322,0.921866 -9.13323,0.921865 -9.13322,0.918551 -9.13324,0.92186 -9.13322,0.92187 -9.13322,0.92187 -9.13323,0.91855 -9.13322,0.92186 -9.13323,0.92187 -9.13323,58.03111 -9.13323,13.26425 h -9.13322 -9.13322 l -9.13323,19.89639 h -9.13322 -9.13324 l -9.133218,24.87047 h -9.133231 -9.133222 v 0 0"
         style="stroke-width:0.921129"
         sodipodi:nodetypes="cccccccccccccccccccccccccccccccccccccccccccccccccccccccccccccccccccccccccccccccccccccccccccccccccccccccccccccccccccccccccc" />
    </g>
    <path
       id="svg_62"
       stroke-opacity="0.7"
       stroke-linejoin="round"
       stroke-linecap="round"
       stroke-width="0.93034px"
       stroke-dasharray="1, 0"
       fill="none"
       stroke="#ffb885"
       d="m 79.865779,222.33887 h 9.133222 9.133231 l 9.133218,-24.87047 h 9.13324 9.13322 l 9.13323,-19.89639 h 9.13322 9.13322 l 9.13323,-13.26425 9.13323,-58.03111 9.13323,-0.92187 9.13322,-0.92186 9.13323,-1.37949 9.13322,-1.3828 9.13322,-1.38279 9.13324,-1.382802 9.13322,-1.376167 9.13323,-1.382798 9.13322,-1.382799 9.13322,-1.382798 9.13323,-1.382799 9.13323,-1.379482 9.13323,-1.382799 9.13322,-1.382798 9.13323,-1.382799 9.13322,-1.376166 9.13323,-1.382799 9.13323,-1.382798 9.13322,-1.382799 9.13323,-1.382798 9.13322,-1.379483 9.13323,-1.382798 9.13322,-1.382799 9.13323,-1.382798 9.13323,-1.376166 9.13322,-1.382799 9.13323,-1.382798 9.13322,-1.382799 9.13323,-1.382799 9.13323,-1.379482 9.13322,-1.382798 9.13323,-1.382799 9.13322,-1.382798 9.13323,-1.376167 9.13323,-1.382798 9.13322,-1.382799 9.13323,-0.460933 9.13322,-0.460933 h 9.13323 9.13322 9.13324 9.13322 9.13322 9.13323 9.13322 9.13323 9.13323 9.13323 9.13322" />
  </g>
  <circle
     id="svg_63"
     fill-opacity="0.7"
     fill="#4f000b"
     r="5.9873371"
     cy="32.125782"
     cx="66.969978"
     style="stroke-width:0.921129" />
  <circle
     id="svg_66"
     fill-opacity="0.7"
     fill="#720026"
     r="5.9873371"
     cy="32.125782"
     cx="121.31657"
     style="stroke-width:0.921129" />
  <circle
     id="svg_69"
     fill-opacity="0.7"
     fill="#ce4257"
     r="5.9873371"
     cy="32.125782"
     cx="210.66606"
     style="stroke-width:0.921129" />
  <circle
     id="svg_72"
     fill-opacity="0.7"
     fill="#ff7f51"
     r="5.9873371"
     cy="32.125782"
     cx="297.25217"
     style="stroke-width:0.921129" />
  <circle
     id="svg_75"
     fill-opacity="0.7"
     fill="#ff9b54"
     r="5.9873371"
     cy="32.125782"
     cx="369.10022"
     style="stroke-width:0.921129" />
  <circle
     id="svg_78"
     fill-opacity="0.7"
     fill="#ffb885"
     r="5.9873371"
     cy="32.125782"
     cx="485.16245"
     style="stroke-width:0.921129" />
  <path
     style="fill:#e07887;stroke:#000000;stroke-width:1px;stroke-linecap:butt;stroke-linejoin:miter;stroke-opacity:1;fill-opacity:0.09677419;opacity:0.22829582"
     d="m 618.72611,197.4684 v 30.43742"
     id="path1998" />
  <g
     inkscape:groupmode="layer"
     id="layer1"
     inkscape:label="graphs" />
</svg>
